<svg xmlns="http://www.w3.org/2000/svg" xmlns:xlink="http://www.w3.org/1999/xlink" width="500" zoomAndPan="magnify" viewBox="0 0 375 374.999991" height="500" preserveAspectRatio="xMidYMid meet" version="1.0"><defs><clipPath id="14917b85c2"><path d="M 56.863281 222 L 317.863281 222 L 317.863281 337 L 56.863281 337 Z M 56.863281 222 " clip-rule="nonzero"/></clipPath></defs><path fill="#000000" d="M 187.371094 259.453125 C 187.382812 259.453125 187.390625 259.453125 187.390625 259.453125 C 196.402344 259.453125 205.621094 253.203125 205.828125 241.257812 L 205.828125 103.621094 L 230.449219 128.265625 C 239.027344 136.589844 249.976562 134.453125 256.367188 128.070312 C 262.746094 121.6875 264.863281 110.730469 256.5 102.082031 L 200.429688 45.957031 C 198.960938 44.476562 197.167969 43.265625 194.925781 42.253906 C 187.949219 39.160156 179.675781 40.640625 174.316406 45.941406 L 118.34375 101.96875 C 112.929688 107.015625 111.359375 114.933594 114.34375 122.136719 C 117.261719 129.179688 123.6875 133.640625 130.691406 133.640625 C 135.601562 133.648438 140.710938 131.847656 144.332031 128.214844 L 168.898438 103.621094 L 168.898438 241.246094 C 169.078125 253.1875 178.332031 259.445312 187.371094 259.453125 Z M 187.371094 259.453125 " fill-opacity="1" fill-rule="nonzero"/><g clip-path="url(#14917b85c2)"><path fill="#000000" d="M 56.730469 241.175781 L 56.730469 261.625 C 56.730469 302.773438 90.171875 336.25 131.277344 336.25 L 243.453125 336.25 C 284.554688 336.25 317.996094 302.773438 317.996094 261.625 L 317.996094 241.175781 C 317.996094 230.988281 309.714844 222.695312 299.539062 222.695312 C 289.355469 222.695312 281.074219 230.988281 281.074219 241.175781 L 281.074219 261.625 C 281.074219 282.390625 264.195312 299.289062 243.453125 299.289062 L 131.277344 299.289062 C 110.53125 299.289062 93.652344 282.390625 93.652344 261.625 L 93.652344 241.175781 C 93.652344 230.988281 85.371094 222.695312 75.1875 222.695312 C 65.011719 222.695312 56.730469 230.988281 56.730469 241.175781 Z M 56.730469 241.175781 " fill-opacity="1" fill-rule="nonzero"/></g></svg>